<svg width="100%" height="100%" viewBox="0 0 321 307" version="1.1" xmlns="http://www.w3.org/2000/svg" xmlns:xlink="http://www.w3.org/1999/xlink" xml:space="preserve" style="fill-rule:evenodd;clip-rule:evenodd;stroke-linejoin:round;stroke-miterlimit:2;">
    <g transform="matrix(285.165,195.855,-195.855,285.165,-91.6769,9.34981)">
        <path d="M0.812,-0.107L0.836,0.007C0.837,0.015 0.838,0.02 0.839,0.021C0.842,0.033 0.843,0.042 0.842,0.047C0.842,0.052 0.839,0.057 0.834,0.062L0.837,0.066L0.875,0.04L0.872,0.036C0.868,0.039 0.864,0.04 0.86,0.04C0.856,0.039 0.852,0.037 0.85,0.034C0.847,0.03 0.845,0.021 0.841,0.006L0.841,0.005C0.853,-0.003 0.86,-0.015 0.862,-0.028C0.873,-0.026 0.885,-0.028 0.896,-0.033L0.914,-0.021C0.921,-0.016 0.926,-0.013 0.926,-0.012C0.928,-0.009 0.928,-0.007 0.927,-0.004C0.925,-0.002 0.922,0.002 0.915,0.006L0.918,0.01L0.969,-0.024L0.969,-0.024L0.966,-0.029C0.961,-0.026 0.957,-0.025 0.953,-0.025C0.95,-0.025 0.947,-0.026 0.943,-0.029L0.928,-0.038L0.816,-0.11L0.812,-0.107ZM0.823,-0.08L0.884,-0.04C0.877,-0.038 0.87,-0.038 0.863,-0.039C0.859,-0.04 0.855,-0.042 0.851,-0.044C0.852,-0.04 0.852,-0.036 0.851,-0.031C0.85,-0.022 0.846,-0.014 0.839,-0.007L0.823,-0.08Z" style="fill:url(#_Linear1);fill-rule:nonzero;"/>
    </g>
    <g transform="matrix(285.165,195.855,-195.855,285.165,-66.6891,-27.0324)">
        <path d="M0.528,-0.117C0.517,-0.084 0.531,-0.049 0.561,-0.033C0.563,-0.023 0.566,-0.013 0.571,-0.004C0.562,0.001 0.554,0.007 0.546,0.014L0.546,0.014C0.513,0.009 0.479,0.028 0.468,0.062C0.467,0.067 0.466,0.072 0.465,0.077L0.621,0.129C0.625,0.13 0.629,0.131 0.634,0.132C0.687,0.143 0.742,0.112 0.76,0.059C0.777,0.005 0.752,-0.052 0.702,-0.075C0.698,-0.077 0.694,-0.079 0.69,-0.08L0.534,-0.132C0.532,-0.127 0.529,-0.123 0.528,-0.117ZM0.593,-0.012C0.591,-0.015 0.589,-0.019 0.588,-0.023L0.676,0.006C0.688,0.01 0.695,0.023 0.691,0.036C0.686,0.048 0.673,0.055 0.661,0.051C0.661,0.051 0.573,0.022 0.573,0.022C0.577,0.02 0.58,0.018 0.584,0.016C0.592,0.012 0.6,0.01 0.609,0.009C0.603,0.003 0.597,-0.004 0.593,-0.012Z" style="fill:url(#_Linear2);fill-rule:nonzero;"/>
    </g>
    <g transform="matrix(285.165,195.855,-195.855,285.165,-40.6253,-64.9812)">
        <path d="M0.762,0.003C0.762,0.008 0.762,0.012 0.762,0.017C0.766,0.071 0.811,0.116 0.867,0.118C0.923,0.121 0.971,0.081 0.98,0.027C0.981,0.023 0.981,0.018 0.982,0.014L0.989,-0.15C0.984,-0.151 0.979,-0.152 0.974,-0.153C0.939,-0.154 0.909,-0.13 0.902,-0.097C0.902,-0.097 0.902,-0.097 0.902,-0.097C0.892,-0.093 0.884,-0.087 0.876,-0.08C0.869,-0.088 0.861,-0.095 0.852,-0.1C0.848,-0.133 0.82,-0.16 0.786,-0.162C0.78,-0.162 0.775,-0.161 0.77,-0.16L0.762,0.003ZM0.87,0.046C0.857,0.045 0.847,0.034 0.848,0.021L0.852,-0.071C0.855,-0.069 0.858,-0.066 0.861,-0.063C0.866,-0.056 0.871,-0.048 0.874,-0.04C0.878,-0.048 0.883,-0.055 0.89,-0.061C0.893,-0.064 0.896,-0.066 0.899,-0.069C0.899,-0.069 0.895,0.023 0.895,0.023C0.894,0.031 0.89,0.037 0.885,0.041C0.88,0.044 0.875,0.046 0.87,0.046Z" style="fill:url(#_Linear3);fill-rule:nonzero;"/>
    </g>
    <g transform="matrix(285.165,195.855,-195.855,285.165,-66.4241,-27.418)">
        <path d="M0.973,0.065C0.989,0.119 1.043,0.152 1.097,0.142C1.101,0.141 1.106,0.14 1.11,0.139L1.267,0.092C1.267,0.087 1.266,0.082 1.264,0.077C1.254,0.043 1.222,0.023 1.189,0.027C1.181,0.019 1.173,0.013 1.163,0.008C1.168,-0.001 1.172,-0.01 1.174,-0.02C1.174,-0.02 1.174,-0.02 1.174,-0.02C1.204,-0.035 1.22,-0.07 1.21,-0.104C1.209,-0.109 1.207,-0.114 1.204,-0.118L1.047,-0.071C1.043,-0.07 1.039,-0.069 1.035,-0.067C1.028,-0.064 1.022,-0.061 1.016,-0.057C0.978,-0.03 0.959,0.018 0.973,0.065ZM1.161,0.034L1.072,0.06C1.06,0.064 1.047,0.057 1.043,0.044C1.039,0.032 1.046,0.019 1.059,0.015L1.147,-0.011C1.146,-0.007 1.144,-0.004 1.142,-0C1.137,0.007 1.132,0.014 1.125,0.02C1.134,0.021 1.142,0.024 1.15,0.028C1.154,0.03 1.157,0.032 1.161,0.034Z" style="fill:url(#_Linear4);fill-rule:nonzero;"/>
    </g>
    <g transform="matrix(285.165,195.855,-195.855,285.165,-128.511,62.9803)">
        <path d="M0.649,-0.119C0.646,-0.116 0.643,-0.113 0.641,-0.109L0.541,0.021C0.544,0.025 0.548,0.028 0.552,0.031C0.58,0.053 0.618,0.05 0.643,0.027C0.643,0.027 0.643,0.027 0.643,0.027C0.653,0.029 0.663,0.029 0.673,0.028C0.675,0.038 0.677,0.048 0.682,0.058C0.666,0.088 0.674,0.125 0.701,0.147C0.705,0.15 0.71,0.153 0.715,0.155L0.815,0.025C0.818,0.021 0.82,0.018 0.822,0.014C0.85,-0.033 0.839,-0.095 0.795,-0.129C0.756,-0.159 0.704,-0.159 0.666,-0.133C0.66,-0.129 0.654,-0.124 0.649,-0.119ZM0.696,0.022C0.696,0.014 0.696,0.005 0.698,-0.004C0.69,0 0.682,0.003 0.673,0.004C0.669,0.005 0.665,0.005 0.661,0.006L0.717,-0.067C0.725,-0.078 0.74,-0.08 0.75,-0.072C0.761,-0.064 0.763,-0.049 0.755,-0.038L0.698,0.035C0.697,0.031 0.697,0.027 0.696,0.022Z" style="fill:url(#_Linear5);fill-rule:nonzero;"/>
    </g>
    <g transform="matrix(285.165,195.855,-195.855,285.165,-132.158,68.2906)">
        <path d="M0.895,-0.001C0.897,0.003 0.899,0.007 0.902,0.01L0.994,0.146C0.999,0.144 1.004,0.142 1.008,0.139C1.037,0.119 1.047,0.082 1.033,0.052C1.038,0.042 1.041,0.032 1.043,0.022C1.053,0.024 1.063,0.024 1.073,0.023C1.073,0.023 1.073,0.023 1.073,0.023C1.097,0.048 1.135,0.053 1.164,0.033C1.169,0.03 1.172,0.027 1.176,0.023L1.084,-0.113C1.081,-0.117 1.079,-0.12 1.076,-0.123C1.04,-0.165 0.978,-0.174 0.931,-0.142C0.931,-0.142 0.931,-0.142 0.931,-0.142C0.885,-0.11 0.87,-0.05 0.895,-0.001ZM1.018,0.027L0.966,-0.049C0.959,-0.06 0.961,-0.075 0.972,-0.082C0.983,-0.089 0.998,-0.086 1.005,-0.076C1.005,-0.076 1.057,0 1.057,0C1.053,0 1.048,-0 1.044,-0.001C1.036,-0.003 1.028,-0.006 1.02,-0.011C1.022,-0.002 1.022,0.007 1.02,0.015C1.02,0.019 1.019,0.023 1.018,0.027Z" style="fill:url(#_Linear6);fill-rule:nonzero;"/>
    </g>
    <g transform="matrix(-3.10496,-345.932,345.932,-3.10496,162.91,262.044)">
        <path d="M0.648,-0.041C0.607,-0.041 0.568,-0.025 0.539,0C0.568,0.025 0.607,0.041 0.648,0.041C0.69,0.041 0.728,0.025 0.757,0C0.728,-0.025 0.69,-0.041 0.648,-0.041Z" style="fill:url(#_Linear7);fill-rule:nonzero;"/>
    </g>
    <g transform="matrix(-203.641,-279.658,279.658,-203.641,489.129,620.544)">
        <path d="M1.227,-0.041C1.185,-0.041 1.147,-0.025 1.118,0C1.147,0.025 1.185,0.041 1.227,0.041C1.269,0.041 1.307,0.025 1.336,0C1.307,-0.025 1.269,-0.041 1.227,-0.041Z" style="fill:url(#_Linear8);fill-rule:nonzero;"/>
    </g>
    <g transform="matrix(205.797,-278.076,278.076,205.797,-92.9679,514.527)">
        <path d="M0.854,-0.041C0.812,-0.041 0.774,-0.025 0.745,-0C0.774,0.025 0.812,0.041 0.854,0.041C0.896,0.041 0.934,0.025 0.963,0C0.934,-0.025 0.896,-0.041 0.854,-0.041Z" style="fill:url(#_Linear9);fill-rule:nonzero;"/>
    </g>
    <g transform="matrix(285.165,195.855,-195.855,285.165,-25.8623,-86.4763)">
        <path d="M1.062,-0.023C1.037,0.011 1.026,0.05 1.029,0.089C1.067,0.081 1.102,0.06 1.127,0.026C1.152,-0.007 1.163,-0.046 1.161,-0.085C1.14,-0.081 1.119,-0.072 1.101,-0.059C1.087,-0.05 1.074,-0.037 1.062,-0.023Z" style="fill:url(#_Linear10);fill-rule:nonzero;"/>
    </g>
    <g transform="matrix(285.165,195.855,-195.855,285.165,-105.543,29.5396)">
        <path d="M0.391,0.031C0.426,0.048 0.467,0.052 0.507,0.041C0.548,0.03 0.58,0.005 0.602,-0.027C0.567,-0.044 0.526,-0.048 0.486,-0.037C0.467,-0.032 0.451,-0.024 0.436,-0.014C0.418,-0.002 0.403,0.014 0.391,0.031Z" style="fill:url(#_Linear11);fill-rule:nonzero;"/>
    </g>
    <defs>
        <linearGradient id="_Linear1" x1="0" y1="0" x2="1" y2="0" gradientUnits="userSpaceOnUse" gradientTransform="matrix(1,5.55112e-17,5.55112e-17,-1,0,-0.0438606)"><stop offset="0" style="stop-color:white;stop-opacity:1"/><stop offset="1" style="stop-color:rgb(197,156,117);stop-opacity:1"/></linearGradient>
        <linearGradient id="_Linear2" x1="0" y1="0" x2="1" y2="0" gradientUnits="userSpaceOnUse" gradientTransform="matrix(1,5.55112e-17,5.55112e-17,-1,0,0.011178)"><stop offset="0" style="stop-color:white;stop-opacity:1"/><stop offset="1" style="stop-color:rgb(197,156,117);stop-opacity:1"/></linearGradient>
        <linearGradient id="_Linear3" x1="0" y1="0" x2="1" y2="0" gradientUnits="userSpaceOnUse" gradientTransform="matrix(1,5.55112e-17,5.55112e-17,-1,0,-0.0406794)"><stop offset="0" style="stop-color:white;stop-opacity:1"/><stop offset="1" style="stop-color:rgb(197,156,117);stop-opacity:1"/></linearGradient>
        <linearGradient id="_Linear4" x1="0" y1="0" x2="1" y2="0" gradientUnits="userSpaceOnUse" gradientTransform="matrix(1,5.55112e-17,5.55112e-17,-1,0,0.0331246)"><stop offset="0" style="stop-color:white;stop-opacity:1"/><stop offset="1" style="stop-color:rgb(197,156,117);stop-opacity:1"/></linearGradient>
        <linearGradient id="_Linear5" x1="0" y1="0" x2="1" y2="0" gradientUnits="userSpaceOnUse" gradientTransform="matrix(1,5.55112e-17,5.55112e-17,-1,0,-0.00448853)"><stop offset="0" style="stop-color:white;stop-opacity:1"/><stop offset="1" style="stop-color:rgb(197,156,117);stop-opacity:1"/></linearGradient>
        <linearGradient id="_Linear6" x1="0" y1="0" x2="1" y2="0" gradientUnits="userSpaceOnUse" gradientTransform="matrix(1,5.55112e-17,5.55112e-17,-1,0,-0.0277872)"><stop offset="0" style="stop-color:white;stop-opacity:1"/><stop offset="1" style="stop-color:rgb(197,156,117);stop-opacity:1"/></linearGradient>
        <linearGradient id="_Linear7" x1="0" y1="0" x2="1" y2="0" gradientUnits="userSpaceOnUse" gradientTransform="matrix(-0.57352,0.819192,0.819192,0.57352,1.02016,-0.531104)"><stop offset="0" style="stop-color:white;stop-opacity:1"/><stop offset="1" style="stop-color:rgb(197,156,117);stop-opacity:1"/></linearGradient>
        <linearGradient id="_Linear8" x1="0" y1="0" x2="1" y2="0" gradientUnits="userSpaceOnUse" gradientTransform="matrix(-0.942892,0.333098,0.333098,0.942892,2.38415,-0.408749)"><stop offset="0" style="stop-color:white;stop-opacity:1"/><stop offset="1" style="stop-color:rgb(197,156,117);stop-opacity:1"/></linearGradient>
        <linearGradient id="_Linear9" x1="0" y1="0" x2="1" y2="0" gradientUnits="userSpaceOnUse" gradientTransform="matrix(0.0352903,0.999377,0.999377,-0.0352903,0.82373,-0.853331)"><stop offset="0" style="stop-color:white;stop-opacity:1"/><stop offset="1" style="stop-color:rgb(197,156,117);stop-opacity:1"/></linearGradient>
        <linearGradient id="_Linear10" x1="0" y1="0" x2="1" y2="0" gradientUnits="userSpaceOnUse" gradientTransform="matrix(1,5.55112e-17,5.55112e-17,-1,0,0.00377759)"><stop offset="0" style="stop-color:white;stop-opacity:1"/><stop offset="1" style="stop-color:rgb(197,156,117);stop-opacity:1"/></linearGradient>
        <linearGradient id="_Linear11" x1="0" y1="0" x2="1" y2="0" gradientUnits="userSpaceOnUse" gradientTransform="matrix(1,5.55112e-17,5.55112e-17,-1,0,0.0036503)"><stop offset="0" style="stop-color:white;stop-opacity:1"/><stop offset="1" style="stop-color:rgb(197,156,117);stop-opacity:1"/></linearGradient>
    </defs>
</svg>
